<?xml version="1.0" encoding="utf-8"?>
<!-- Generator: Adobe Illustrator 27.5.0, SVG Export Plug-In . SVG Version: 6.00 Build 0)  -->
<svg version="1.1" xmlns="http://www.w3.org/2000/svg" xmlns:xlink="http://www.w3.org/1999/xlink" x="0px" y="0px"
	 viewBox="0 0 1122 1122" style="enable-background:new 0 0 1122 1122;" xml:space="preserve">
<g id="BG">

</g>
<g id="Alphabet_1_">
	<g>
		<path style="fill:#5D75B6;" d="M584.754,208.721c43.47,0,82.968,8.372,118.476,25.117c35.508,16.745,65.09,39.494,88.724,68.235
			c23.632,28.754,40.426,62.375,50.354,100.887c9.928,38.513,11.066,79.538,3.389,123.074
			c-7.677,43.537-23.282,84.561-46.792,123.074c-23.51,38.513-52.163,72.146-85.932,100.887
			c-33.772,28.754-71.375,51.489-112.788,68.234c-41.413,16.745-83.863,25.118-127.333,25.118c-43.485,0-82.98-8.373-118.488-25.118
			c-35.508-16.745-65.094-39.48-88.725-68.234c-23.634-28.741-40.427-62.375-50.355-100.887
			c-9.927-38.514-11.053-79.538-3.376-123.074c7.677-43.537,23.271-84.562,46.779-123.074
			c23.51-38.513,52.161-72.133,85.933-100.887c33.768-28.741,71.375-51.49,112.788-68.235
			C498.821,217.093,541.27,208.721,584.754,208.721z M562.733,335.981c-26.243,0-51.827,5.024-76.748,15.045
			c-24.934,10.02-47.555,23.534-67.843,40.514c-20.301,16.981-37.508,37.035-51.631,60.15
			c-14.123,23.115-23.491,47.762-28.105,73.925c-4.616,26.178-3.939,50.824,2.032,73.94c5.971,23.116,16.083,43.3,30.345,60.568
			c14.249,17.268,32.082,30.912,53.482,40.933c21.388,10.021,45.203,15.031,71.445,15.031c26.229,0,51.811-5.01,76.746-15.031
			c24.923-10.021,47.421-23.665,67.499-40.933c20.065-17.268,37.163-37.453,51.286-60.568c14.123-23.116,23.493-47.762,28.109-73.94
			c4.613-26.163,3.935-50.81-2.036-73.925c-5.971-23.116-15.974-43.169-30-60.15c-14.039-16.98-31.749-30.494-53.138-40.514
			C612.775,341.005,588.963,335.981,562.733,335.981z"/>
		<linearGradient id="SVGID_1_" gradientUnits="userSpaceOnUse" x1="326.1982" y1="627.2861" x2="930.5021" y2="627.2861">
			<stop  offset="0" style="stop-color:#8AC8FA"/>
			<stop  offset="0.9949" style="stop-color:#D96569"/>
		</linearGradient>
		<path style="fill:url(#SVGID_1_);" d="M922.096,483.992c-9.928-38.513-26.722-72.134-50.354-100.887
			c-17.084-20.775-37.293-38.403-60.584-52.912c13.769,22.259,24.166,46.919,31.15,74.011c9.928,38.513,11.066,79.538,3.389,123.074
			c-7.677,43.537-23.282,84.561-46.792,123.075c-23.51,38.512-52.162,72.146-85.932,100.887
			c-33.772,28.754-71.375,51.489-112.788,68.234c-41.413,16.745-83.862,25.118-127.333,25.118
			c-43.485,0-82.981-8.373-118.488-25.118c-9.85-4.645-19.228-9.769-28.166-15.336c5.809,9.393,12.214,18.36,19.23,26.891
			c23.63,28.754,53.217,51.489,88.725,68.234c35.508,16.745,75.004,25.118,118.488,25.118c43.47,0,85.92-8.373,127.333-25.118
			c41.413-16.745,79.016-39.48,112.788-68.234c33.77-28.741,62.422-62.375,85.932-100.887
			c23.51-38.514,39.115-79.538,46.792-123.075C933.162,563.529,932.025,522.504,922.096,483.992z"/>
		
			<linearGradient id="SVGID_00000123429970817366037260000011168292467807317179_" gradientUnits="userSpaceOnUse" x1="335.3864" y1="520.6412" x2="709.695" y2="520.6412">
			<stop  offset="0" style="stop-color:#91C5C8"/>
			<stop  offset="1" style="stop-color:#9BBCE3"/>
		</linearGradient>
		<path style="fill:url(#SVGID_00000123429970817366037260000011168292467807317179_);" d="M418.194,606.647
			c4.613-26.163,13.982-50.81,28.105-73.925c14.123-23.116,31.33-43.169,51.631-60.15c20.288-16.98,42.909-30.494,67.843-40.514
			c24.921-10.021,50.506-15.045,76.748-15.045c24.499,0,46.888,4.386,67.174,13.13c-5.734-13.768-13.188-26.229-22.381-37.359
			c-14.039-16.98-31.749-30.494-53.138-40.514c-21.4-10.021-45.213-15.045-71.443-15.045c-26.243,0-51.827,5.024-76.748,15.045
			c-24.934,10.02-47.555,23.534-67.843,40.514c-20.302,16.981-37.509,37.035-51.631,60.15
			c-14.123,23.115-23.491,47.762-28.105,73.925c-4.616,26.178-3.939,50.824,2.032,73.94c5.971,23.115,16.083,43.3,30.345,60.568
			c14.249,17.268,32.081,30.912,53.482,40.933c1.291,0.605,2.593,1.19,3.902,1.759c-3.163-7.459-5.823-15.273-7.941-23.472
			C414.255,657.471,413.578,632.824,418.194,606.647z"/>
	</g>
</g>
</svg>
