<?xml version="1.0" encoding="utf-8"?>
<!-- Generator: Adobe Illustrator 28.0.0, SVG Export Plug-In . SVG Version: 6.00 Build 0)  -->
<svg version="1.1" id="Layer_1" xmlns="http://www.w3.org/2000/svg" xmlns:xlink="http://www.w3.org/1999/xlink" x="0px" y="0px"
	 viewBox="0 0 240 40" style="enable-background:new 0 0 240 40;" xml:space="preserve">
<style type="text/css">
	.st0{fill:#FFFFFF;}
	.st1{clip-path:url(#SVGID_00000149364158976772866930000016321993720819195554_);}
	.st2{fill:#1298FF;}
	.st3{fill:#232323;}
	.st4{fill:#CCCCCC;}
	.st5{fill:url(#SVGID_00000007400721374678287190000016198613553946934417_);}
	.st6{opacity:0.5;fill:url(#SVGID_00000065074995785625779630000018287068419789622679_);}
	.st7{fill:url(#SVGID_00000070826607397669963070000010999681918932055177_);}
	.st8{fill:#1C1918;}
	.st9{fill:url(#SVGID_00000117662407117664556440000018274643845717594754_);}
	.st10{opacity:0.5;fill:url(#SVGID_00000152243070812269416830000016038360483717540779_);}
	.st11{fill:url(#SVGID_00000177482553691429506700000013373814869773551744_);}
	.st12{fill:url(#SVGID_00000090272525431242938580000014060719752153260686_);}
	.st13{opacity:0.5;fill:url(#SVGID_00000151508841301659183610000005247172019408289974_);}
	.st14{fill:url(#SVGID_00000138537487486789066390000011926246663579842973_);}
	.st15{fill:url(#SVGID_00000019662391854757075080000005196520883174517654_);}
	.st16{opacity:0.5;fill:url(#SVGID_00000056400676724727199910000007728353585185286272_);}
	.st17{fill:url(#SVGID_00000172404394028198433610000003081486596756534973_);}
	.st18{fill:url(#SVGID_00000157289192629603441720000003109342095622293437_);}
	.st19{fill:url(#SVGID_00000062151968727720357860000014783898949155516546_);}
	.st20{opacity:0.5;fill:url(#SVGID_00000132780138087849208050000008922195517599408269_);}
	.st21{fill:url(#SVGID_00000111899088881083315960000011162884769336250766_);}
	.st22{opacity:0.5;fill:url(#SVGID_00000106146816583184913690000009109883982269484160_);}
	.st23{fill:url(#SVGID_00000034783947980654306210000012029771947458342292_);}
</style>
<g id="Group_6418_00000111870607937233054640000001432977969643884940_" transform="translate(-16 -13)">
	
		<rect id="Rectangle_7_00000112614298671760422080000007355423959285331846_" x="96.1" y="15.7" class="st0" width="152.4" height="32.7"/>
	<g id="Group_2_00000165948211221338144140000013998823493791763080_" transform="translate(16 13)">
		<g>
			<defs>
				<rect id="SVGID_1_" x="5.9" y="0.3" width="229" height="36.7"/>
			</defs>
			<clipPath id="SVGID_00000063613752498825152830000005543667994757094827_">
				<use xlink:href="#SVGID_1_"  style="overflow:visible;"/>
			</clipPath>
			
				<g id="Group_1_00000005238172667797934580000002253556140656676517_" transform="translate(0 0)" style="clip-path:url(#SVGID_00000063613752498825152830000005543667994757094827_);">
				<path id="Path_1_00000111169277962022520430000004145029449748814007_" d="M121.7,17.1l-5.1-1.1c-0.4-0.1-0.7-0.4-0.6-0.8v-1.9
					c-0.1-0.4,0.2-0.7,0.5-0.7c0.1,0,0.1,0,0.2,0h2.8c0.4-0.1,0.7,0.2,0.7,0.5c0,0.1,0,0.1,0,0.2v1.4h4.8v-2.5
					c0.1-1.1-0.3-2.1-1-2.9c-0.8-0.7-1.9-1.1-2.9-1h-6c-1.1-0.1-2.1,0.3-2.9,1c-0.7,0.8-1.1,1.9-1,2.9v3.3c-0.2,2.1,1.4,4,3.5,4.3
					l5.1,1.1c0.4,0.1,0.7,0.4,0.6,0.8v2.3c0.1,0.4-0.2,0.7-0.5,0.7c-0.1,0-0.1,0-0.2,0h-2.9c-0.4,0.1-0.7-0.2-0.7-0.5
					c0-0.1,0-0.1,0-0.2v-1.7h-4.8v2.7c-0.1,1.1,0.3,2.1,1,2.9c0.8,0.7,1.9,1.1,2.9,1h6.2c1.1,0.1,2.1-0.3,2.9-1
					c0.7-0.8,1.1-1.9,1-2.9v-3.7C125.3,19.2,123.8,17.3,121.7,17.1"/>
				<path id="Path_2_00000108302513075430045410000001502913399494556595_" d="M138.1,8.4h-10v20.5h4.8v-6.4h5.1
					c1.1,0.1,2.1-0.3,2.9-1c0.7-0.8,1.1-1.9,1-2.9v-6.2c0.1-1.1-0.3-2.1-1-2.9C140.2,8.7,139.1,8.3,138.1,8.4 M137.2,17.5
					c0.1,0.4-0.2,0.7-0.5,0.7c-0.1,0-0.1,0-0.2,0h-3.5v-5.7h3.5c0.4,0,0.7,0.2,0.7,0.6c0,0.1,0,0.1,0,0.2L137.2,17.5z"/>
				<path id="Path_3_00000026151009649253706760000003537741281628780706_" d="M158.9,18.6v-6.2c0.1-1.1-0.3-2.1-1-2.9
					c-0.8-0.7-1.9-1.1-2.9-1h-10v20.5h4.8v-6.4h2.2l2.2,6.4h5l-2.3-6.7C158.2,21.6,158.9,20.4,158.9,18.6 M154,17.5
					c0.1,0.4-0.2,0.7-0.5,0.7c-0.1,0-0.1,0-0.2,0h-3.5v-5.7h3.5c0.4,0,0.7,0.2,0.7,0.6c0,0.1,0,0.1,0,0.2L154,17.5z"/>
				<path id="Path_4_00000011712534056701283850000018272842888840389793_" d="M180.6,8.4l-5,20.5h5l0.8-4.2h4.8l0.8,4.3h5l-5-20.5
					H180.6z M182.2,20.4l1.5-7.8h0.2l1.5,7.8H182.2z"/>
				<path id="Path_5_00000093176001744101870190000003329837394033996694_" d="M204,8.4h-10v20.5h10c1.1,0.1,2.1-0.3,2.9-1
					c0.7-0.8,1.1-1.9,1-2.9V12.3c0.1-1.1-0.3-2.1-1-2.9C206.2,8.7,205.1,8.3,204,8.4 M203.2,23.9c0.1,0.4-0.2,0.7-0.5,0.7
					c-0.1,0-0.1,0-0.2,0h-3.5v-12h3.5c0.4,0,0.7,0.2,0.7,0.6c0,0.1,0,0.1,0,0.2L203.2,23.9z"/>
				<path id="Path_6_00000078003982507590654230000011640865439584358285_" d="M221.3,17.1l-5.1-1.1c-0.4-0.1-0.7-0.4-0.6-0.8v-1.9
					c-0.1-0.4,0.2-0.7,0.5-0.7c0.1,0,0.1,0,0.2,0h2.8c0.4-0.1,0.7,0.2,0.7,0.5c0,0.1,0,0.1,0,0.2v1.4h4.8v-2.5
					c0.1-1.1-0.3-2.1-1-2.9c-0.8-0.7-1.9-1.1-2.9-1h-6c-1.1-0.1-2.1,0.3-2.9,1c-0.7,0.8-1.1,1.9-1,2.9v3.3c-0.2,2.1,1.4,4,3.5,4.3
					l5.1,1.1c0.4,0.1,0.7,0.4,0.6,0.8v2.3c0.1,0.4-0.2,0.7-0.5,0.7c-0.1,0-0.1,0-0.2,0h-2.9c-0.4,0.1-0.7-0.2-0.7-0.5
					c0-0.1,0-0.1,0-0.2v-1.7h-4.8v2.7c-0.1,1.1,0.3,2.1,1,2.9c0.8,0.7,1.9,1.1,2.9,1h6.2c1.1,0.1,2.1-0.3,2.9-1
					c0.7-0.8,1.1-1.9,1-2.9v-3.7C225,19.2,223.5,17.3,221.3,17.1"/>
				<path id="Path_7_00000144296043313654173840000012729656777574449074_" d="M166.8,24.6v-4.1h5.7l1-4.2h-6.8v-3.7h7.2l1-4.2h-13
					v20.5h12l1-4.2L166.8,24.6z"/>
				<path id="Path_8_00000024713372333257128350000012891336000830337454_" d="M235,2.5c0-1.2-1-2.1-2.1-2.1v0H99.9
					c0.7,0.9,1.3,1.7,1.8,2.7h129.5c0.6,0,1.1,0.5,1.1,1.1v29c0,0.6-0.5,1.1-1.1,1.1H101.7c-0.5,0.9-1.1,1.8-1.8,2.7h132.9
					c1.2,0,2.1-1,2.1-2.1v0V2.5z"/>
				<path id="Path_9_00000063635532725014058120000002448755799420233104_" class="st2" d="M105.3,37H8.1c-1.2,0-2.2-1-2.2-2.2V2.5
					c0-1.2,1-2.2,2.2-2.2h97.2l-5.3,18.5L105.3,37z"/>
				<path id="Path_10_00000090256628183382002930000009562288796402613909_" class="st0" d="M28,8.5h-10V29h4.8v-6.4H28
					c1.1,0.1,2.1-0.3,2.9-1c0.7-0.8,1.1-1.9,1-2.9v-6.2c0.1-1.1-0.3-2.1-1-2.9C30.2,8.8,29.1,8.4,28,8.5 M27.1,17.7
					c0.1,0.4-0.2,0.7-0.5,0.7c-0.1,0-0.1,0-0.2,0h-3.5v-5.7h3.5c0.4-0.1,0.7,0.2,0.7,0.5c0,0.1,0,0.1,0,0.2L27.1,17.7z"/>
				<path id="Path_11_00000128458745534440476710000000074745582859464622_" class="st0" d="M44.4,8.3h-6c-1.1-0.1-2.1,0.3-2.9,1
					c-0.7,0.8-1.1,1.9-1,2.9v12.9c-0.1,1.1,0.3,2.1,1,2.9c0.8,0.7,1.9,1.1,2.9,1h6c1.1,0.1,2.1-0.3,2.9-1c0.7-0.8,1.1-1.9,1-2.9
					V12.3c0.1-1.1-0.3-2.1-1-2.9C46.6,8.6,45.5,8.3,44.4,8.3 M43.6,24.2c0.1,0.4-0.2,0.7-0.5,0.7c-0.1,0-0.1,0-0.2,0H40
					c-0.4,0.1-0.7-0.2-0.7-0.5c0-0.1,0-0.1,0-0.2V13.3c0-0.4,0.2-0.7,0.6-0.7c0.1,0,0.1,0,0.2,0h2.8c0.4,0,0.7,0.2,0.7,0.6
					c0,0.1,0,0.1,0,0.2L43.6,24.2z"/>
				
					<rect id="Rectangle_3_00000066511567665467334620000003992121737678827141_" x="51.6" y="8.5" class="st0" width="4.8" height="20.5"/>
				<path id="Path_12_00000181089011662201187810000005191994887167796630_" class="st0" d="M69.8,19.1L64.5,8.5H60V29h4.8V18.4
					L70.1,29h4.5V8.5h-4.8V19.1z"/>
				<path id="Path_13_00000001638294665143342450000003781568224651255945_" class="st0" d="M76.8,12.7h4.5V29h4.8V12.7h4.5V8.5
					H76.8V12.7z"/>
			</g>
		</g>
	</g>
</g>
<g>
	<g>
		<g>
			<g>
				<path class="st3" d="M6.2,30.6c5.7,4.6,16.9,6.9,33.6,6.9c4.6,0,9.6-0.2,15-0.5c10.2-0.7,19-1.3,26.7-1.8
					c40.2-2.8,51-3.5,89.6,0c34.4,3.2,56.8,1,61.6-6c1-1.5,1.2-3.2,0.4-4.9l-0.7,0.3c0.7,1.4,0.5,2.8-0.3,4.1
					c-2.2,3.2-12.4,10.1-60.8,5.6c-38.6-3.6-49.4-2.8-89.7,0c-7.7,0.5-16.5,1.1-26.7,1.8c-18.1,1.2-40,0.8-48.5-6.6L6.2,30.6z"/>
			</g>
		</g>
	</g>
	<g>
		<g>
			<g>
				<path class="st4" d="M6.2,30.3c5.7,4.7,16.9,7,33.6,7c4.6,0,9.6-0.2,15-0.5c10.2-0.7,19-1.3,26.7-1.8c40.2-2.8,51-3.6,89.6,0
					c34.4,3.2,56.8,1,61.6-6.1c1-1.5,1.2-3.2,0.4-5l-0.7,0.3c0.7,1.5,0.5,2.8-0.3,4.1c-2.2,3.2-12.4,10.2-60.8,5.7
					c-38.6-3.6-49.4-2.9-89.7,0c-7.7,0.5-16.5,1.2-26.7,1.8c-18.1,1.2-40,0.8-48.5-6.7L6.2,30.3z"/>
			</g>
		</g>
	</g>
</g>
<g>
	
		<radialGradient id="SVGID_00000060736320995529051460000016941559840514724273_" cx="3769.1711" cy="-347.8111" r="4.8927" gradientTransform="matrix(-0.4777 -0.8785 0.8785 -0.4777 2197.1987 3181.9023)" gradientUnits="userSpaceOnUse">
		<stop  offset="5.241550e-03" style="stop-color:#FFFFFF"/>
		<stop  offset="0.434" style="stop-color:#FFEF3B"/>
		<stop  offset="0.502" style="stop-color:#FCDE3A"/>
		<stop  offset="0.637" style="stop-color:#F3B139"/>
		<stop  offset="0.8095" style="stop-color:#E67036"/>
		<stop  offset="0.8632" style="stop-color:#E56935"/>
		<stop  offset="0.9428" style="stop-color:#E25533"/>
		<stop  offset="1" style="stop-color:#E04231"/>
	</radialGradient>
	<path style="fill:url(#SVGID_00000060736320995529051460000016941559840514724273_);" d="M95.5,35.9C95.4,35.9,95.4,35.9,95.5,35.9
		c-0.2-0.2-0.4-0.5-0.7-1.1c-0.3-0.5-0.5-0.9-0.5-1.1c0,0,0-0.1,0-0.1l0,0c-0.7-0.2-1.9-0.3-3.1,0.3c-3.5,1.9-4.1,4.6-3.9,5
		c0.2,0.4,2.8,1.3,6.3-0.6C94.7,37.7,95.3,36.5,95.5,35.9L95.5,35.9z"/>
	
		<radialGradient id="SVGID_00000026161382060312785040000018347720679200793015_" cx="4160.4414" cy="-147.8098" r="7.34" gradientTransform="matrix(-8.795077e-02 -0.5924 0.9379 -0.1631 593.8829 2475.7852)" gradientUnits="userSpaceOnUse">
		<stop  offset="0.193" style="stop-color:#FFC000"/>
		<stop  offset="0.8607" style="stop-color:#F7BA00;stop-opacity:0.1727"/>
		<stop  offset="1" style="stop-color:#F5B800;stop-opacity:0"/>
	</radialGradient>
	<path style="opacity:0.5;fill:url(#SVGID_00000026161382060312785040000018347720679200793015_);" d="M89.5,30.4
		c-3.6,0.7-8.3,3.8-7.8,6.4c0.5,2.6,6,3.6,9.6,2.9c3.6-0.7,6.2-3.4,5.7-5.9C96.5,31.2,93.1,29.7,89.5,30.4z"/>
	
		<linearGradient id="SVGID_00000176040483920219207950000010049947206307951293_" gradientUnits="userSpaceOnUse" x1="3767.8667" y1="-342.1302" x2="3770.4622" y2="-342.1302" gradientTransform="matrix(-0.4777 -0.8785 0.8785 -0.4777 2197.1987 3181.9023)">
		<stop  offset="0" style="stop-color:#000000"/>
		<stop  offset="0.6622" style="stop-color:#5D5C5C"/>
		<stop  offset="1" style="stop-color:#242424"/>
	</linearGradient>
	<path style="fill:url(#SVGID_00000176040483920219207950000010049947206307951293_);" d="M94.2,33.7c0.1,0.1,0.2,0.5,0.5,1
		c0,0,0,0,0,0.1l0,0l0,0l0,0l0,0c0,0,0,0,0,0.1c0.3,0.5,0.5,0.9,0.6,1c0,0,0.1,0,0.1,0l0,0l0.8-0.4l0,0c0,0,0,0,0-0.1
		c0,0,0-0.1,0-0.1l0,0c0,0,1.4-0.8,1.4-0.8c0.1-0.1,0.1-0.1,0.1-0.2c0,0,0,0,0,0l0,0c0,0,0,0,0,0c0-0.2-0.1-0.5-0.3-0.8c0,0,0,0,0,0
		c0,0,0,0,0,0c0,0,0,0,0,0l0,0c0,0,0,0,0-0.1c0,0,0,0,0,0c0,0,0,0,0,0c0,0,0,0,0-0.1c0,0,0,0,0,0c0,0,0,0,0,0c0,0,0,0,0,0
		c0,0,0,0,0,0c-0.2-0.3-0.4-0.5-0.5-0.7c0,0,0,0,0,0l0,0c0,0,0,0,0,0c0-0.1-0.1-0.1-0.2-0.1c0,0-1.4,0.8-1.4,0.8l0,0
		c0,0-0.1,0-0.1,0c0,0-0.1,0-0.1,0l0,0L94.2,33.7L94.2,33.7C94.2,33.6,94.2,33.7,94.2,33.7z"/>
	<path class="st8" d="M97.7,33.9l0.1-0.4c0-0.2-0.1-0.4-0.3-0.5l-0.4-0.1c-0.1,0-0.1,0-0.1,0.1l0.5,0.9C97.6,34,97.7,33.9,97.7,33.9
		z"/>
	<path class="st0" d="M88.2,39C88.2,39,88.2,39,88.2,39c0.1,0,0.1,0,0.2,0c0.1,0,0.1,0,0.2,0c0.1,0,0.2,0,0.3,0c0.1,0,0.1,0,0.2,0
		c0.1,0,0.1,0,0.2,0c0.1,0,0.1,0,0.2,0c0.1,0,0.1,0,0.2,0c0.1,0,0.1,0,0.2,0c0.1,0,0.1,0,0.2,0c0.1,0,0.1,0,0.2,0c0.1,0,0.1,0,0.2,0
		c0.1,0,0.3-0.1,0.4-0.1c0.1,0,0.1,0,0.2-0.1c0.1,0,0.1,0,0.2-0.1c0.1,0,0.3-0.1,0.4-0.1c0.1,0,0.1,0,0.2-0.1c0.1,0,0.1,0,0.2,0
		c0.1,0,0.2-0.1,0.3-0.1c0.1,0,0.2,0,0.2-0.1c0.1,0,0.1,0,0.1,0c0,0,0.1,0,0.1,0s0,0,0,0c0,0-0.1,0.1-0.1,0.1
		c-0.1,0-0.1,0.1-0.2,0.1c-0.1,0.1-0.2,0.1-0.3,0.2c-0.1,0-0.1,0.1-0.2,0.1c-0.1,0-0.1,0.1-0.2,0.1c-0.1,0.1-0.2,0.1-0.4,0.2
		c-0.1,0-0.1,0-0.2,0.1c-0.1,0-0.1,0-0.2,0.1c-0.1,0-0.3,0.1-0.4,0.1c-0.1,0-0.1,0-0.2,0c-0.1,0-0.1,0-0.2,0c-0.1,0-0.1,0-0.2,0
		c-0.1,0-0.1,0-0.2,0c-0.1,0-0.1,0-0.2,0c-0.1,0-0.1,0-0.2,0c-0.1,0-0.1,0-0.2,0c-0.1,0-0.1,0-0.2,0c-0.1,0-0.2,0-0.3,0
		c-0.1,0-0.2,0-0.2,0C88.3,39,88.2,39,88.2,39C88.2,39,88.2,39,88.2,39z"/>
</g>
<g>
	
		<radialGradient id="SVGID_00000017488248617175256340000006737022772832467113_" cx="3955.0603" cy="-514.6483" r="4.8927" gradientTransform="matrix(-0.8554 0.5179 -0.5179 -0.8554 3353.3704 -2459.0049)" gradientUnits="userSpaceOnUse">
		<stop  offset="5.241550e-03" style="stop-color:#FFFFFF"/>
		<stop  offset="0.434" style="stop-color:#FFEF3B"/>
		<stop  offset="0.502" style="stop-color:#FCDE3A"/>
		<stop  offset="0.637" style="stop-color:#F3B139"/>
		<stop  offset="0.8095" style="stop-color:#E67036"/>
		<stop  offset="0.8632" style="stop-color:#E56935"/>
		<stop  offset="0.9428" style="stop-color:#E25533"/>
		<stop  offset="1" style="stop-color:#E04231"/>
	</radialGradient>
	<path style="fill:url(#SVGID_00000017488248617175256340000006737022772832467113_);" d="M235.6,25.3
		C235.6,25.3,235.6,25.3,235.6,25.3c-0.2,0.2-0.5,0.5-1,0.8c-0.5,0.3-0.9,0.5-1.1,0.6c0,0-0.1,0-0.1,0l0,0c-0.1,0.7-0.2,1.9,0.5,3.1
		c2.1,3.4,4.8,3.9,5.2,3.7c0.3-0.2,1.2-2.8-0.9-6.3C237.3,25.9,236.2,25.4,235.6,25.3L235.6,25.3z"/>
	
		<radialGradient id="SVGID_00000170962170533421680510000015421044986671628729_" cx="4386.4111" cy="-380.3873" r="11.1335" gradientTransform="matrix(-0.5289 0.2966 -0.3194 -0.5726 2431.9702 -1489.8909)" gradientUnits="userSpaceOnUse">
		<stop  offset="0.193" style="stop-color:#FFC000"/>
		<stop  offset="0.8607" style="stop-color:#F7BA00;stop-opacity:0.1727"/>
		<stop  offset="1" style="stop-color:#F5B800;stop-opacity:0"/>
	</radialGradient>
	<path style="opacity:0.5;fill:url(#SVGID_00000170962170533421680510000015421044986671628729_);" d="M226.8,31.8
		c2,3.3,7.6,6.2,11,4.2c3.4-2.1,3.4-8.4,1.4-11.7c-2-3.3-6.4-4.3-9.8-2.2C225.9,24.2,224.7,28.5,226.8,31.8z"/>
	
		<linearGradient id="SVGID_00000060731877005267973020000006388999007184143257_" gradientUnits="userSpaceOnUse" x1="3953.7559" y1="-508.9674" x2="3956.3513" y2="-508.9674" gradientTransform="matrix(-0.8554 0.5179 -0.5179 -0.8554 3353.3704 -2459.0049)">
		<stop  offset="0" style="stop-color:#000000"/>
		<stop  offset="0.6622" style="stop-color:#5D5C5C"/>
		<stop  offset="1" style="stop-color:#242424"/>
	</linearGradient>
	<path style="fill:url(#SVGID_00000060731877005267973020000006388999007184143257_);" d="M233.4,26.6c0.1-0.1,0.5-0.3,1-0.5
		c0,0,0,0,0.1,0l0,0l0,0l0,0l0,0c0,0,0,0,0.1,0c0.5-0.3,0.8-0.5,1-0.6c0,0,0-0.1,0-0.1l0,0l-0.4-0.7l0,0c0,0,0,0-0.1,0
		c0,0-0.1,0-0.1,0l0,0c0,0-0.8-1.4-0.8-1.4c-0.1,0-0.1-0.1-0.2,0c0,0,0,0,0,0l0,0c0,0,0,0,0,0c-0.2,0.1-0.4,0.2-0.8,0.3c0,0,0,0,0,0
		c0,0,0,0,0,0c0,0,0,0,0,0l0,0c0,0,0,0-0.1,0c0,0,0,0,0,0c0,0,0,0,0,0c0,0,0,0-0.1,0c0,0,0,0,0,0c0,0,0,0,0,0c0,0,0,0,0,0
		c0,0,0,0,0,0c-0.3,0.2-0.5,0.4-0.6,0.5c0,0,0,0,0,0l0,0c0,0,0,0,0,0c-0.1,0.1-0.1,0.1-0.1,0.2c0,0,0.8,1.4,0.8,1.4l0,0
		c0,0,0,0.1,0,0.1c0,0,0,0.1,0,0.1l0,0L233.4,26.6L233.4,26.6C233.4,26.6,233.4,26.7,233.4,26.6z"/>
	<path class="st8" d="M233.4,23.2l-0.4-0.1c-0.2,0-0.4,0.1-0.5,0.3l-0.1,0.4c0,0.1,0,0.1,0.1,0.1l0.9-0.5
		C233.5,23.2,233.5,23.2,233.4,23.2z"/>
	<path class="st0" d="M239,32.4C239,32.4,239,32.4,239,32.4c0-0.1,0-0.1,0-0.2c0-0.1,0-0.1,0-0.2c0-0.1,0-0.2-0.1-0.3
		c0-0.1,0-0.1,0-0.2c0-0.1,0-0.1,0-0.2c0-0.1,0-0.1,0-0.2c0-0.1,0-0.1,0-0.2c0-0.1,0-0.1,0-0.2c0-0.1,0-0.1-0.1-0.2
		c0-0.1,0-0.1-0.1-0.2c0-0.1,0-0.1-0.1-0.2c0-0.1-0.1-0.3-0.1-0.4c0-0.1,0-0.1-0.1-0.2c0-0.1,0-0.1-0.1-0.2c0-0.1-0.1-0.3-0.1-0.4
		c0-0.1,0-0.1-0.1-0.2c0-0.1,0-0.1-0.1-0.2c0-0.1-0.1-0.2-0.1-0.3c0-0.1-0.1-0.2-0.1-0.2c0-0.1,0-0.1,0-0.1c0,0,0-0.1,0-0.1s0,0,0,0
		c0,0,0.1,0.1,0.1,0.1c0,0.1,0.1,0.1,0.1,0.2c0.1,0.1,0.1,0.2,0.2,0.3c0,0,0.1,0.1,0.1,0.2c0,0.1,0.1,0.1,0.1,0.2
		c0.1,0.1,0.1,0.2,0.2,0.4c0,0.1,0.1,0.1,0.1,0.2c0,0.1,0.1,0.1,0.1,0.2c0,0.1,0.1,0.3,0.1,0.4c0,0.1,0,0.1,0.1,0.2
		c0,0.1,0,0.1,0.1,0.2c0,0.1,0,0.1,0,0.2c0,0.1,0,0.1,0,0.2c0,0.1,0,0.1,0,0.2c0,0.1,0,0.1,0,0.2c0,0.1,0,0.1,0,0.2
		c0,0.1,0,0.1,0,0.2c0,0.1,0,0.2,0,0.3c0,0.1,0,0.2,0,0.2C239,32.3,239,32.3,239,32.4C239,32.4,239,32.4,239,32.4z"/>
</g>
<g>
	
		<radialGradient id="SVGID_00000051346920608535021060000015963229796425829275_" cx="3116.7439" cy="477.3965" r="4.8929" gradientTransform="matrix(-0.5653 0.8248 -0.8248 -0.5653 2294.0271 -2264.374)" gradientUnits="userSpaceOnUse">
		<stop  offset="5.241550e-03" style="stop-color:#FFFFFF"/>
		<stop  offset="0.434" style="stop-color:#00A900"/>
		<stop  offset="0.5405" style="stop-color:#009800"/>
		<stop  offset="0.7508" style="stop-color:#006C00"/>
		<stop  offset="0.8095" style="stop-color:#005E00"/>
		<stop  offset="0.8649" style="stop-color:#005700"/>
		<stop  offset="0.9469" style="stop-color:#004300"/>
		<stop  offset="1" style="stop-color:#003200"/>
	</radialGradient>
	<path style="fill:url(#SVGID_00000051346920608535021060000015963229796425829275_);" d="M135.5,33.1
		C135.6,33.1,135.6,33.1,135.5,33.1c-0.1,0.2-0.3,0.6-0.6,1.1c-0.3,0.5-0.6,0.8-0.7,1c0,0-0.1,0-0.1,0l0,0c0.2,0.7,0.6,1.9,1.7,2.6
		c3.3,2.3,6,1.6,6.2,1.2c0.2-0.3-0.1-3.1-3.4-5.4C137.4,32.9,136.2,33,135.5,33.1L135.5,33.1z"/>
	
		<radialGradient id="SVGID_00000111188374174552050520000007079277391997227138_" cx="3338.7107" cy="1009.3882" r="11.1329" gradientTransform="matrix(-0.3008 0.3954 -0.6483 -0.4675 1798.4918 -815.4792)" gradientUnits="userSpaceOnUse">
		<stop  offset="0" style="stop-color:#47C800"/>
		<stop  offset="1" style="stop-color:#43BB00;stop-opacity:0"/>
	</radialGradient>
	<path style="opacity:0.5;fill:url(#SVGID_00000111188374174552050520000007079277391997227138_);" d="M135.3,37
		c3.9,2.7,10.8,4.2,12.7,1.5c1.9-2.7-2.1-8.6-6-11.3c-3.9-2.7-8.6-2.6-10.4,0.1C129.8,29.9,131.4,34.3,135.3,37z"/>
	
		<linearGradient id="SVGID_00000063595920638285735690000017553686865945345676_" gradientUnits="userSpaceOnUse" x1="3115.4395" y1="483.0776" x2="3118.0349" y2="483.0776" gradientTransform="matrix(-0.5653 0.8248 -0.8248 -0.5653 2294.0271 -2264.374)">
		<stop  offset="0" style="stop-color:#000000"/>
		<stop  offset="0.6622" style="stop-color:#5D5C5C"/>
		<stop  offset="1" style="stop-color:#242424"/>
	</linearGradient>
	<path style="fill:url(#SVGID_00000063595920638285735690000017553686865945345676_);" d="M134.2,35.2c0.1-0.1,0.4-0.4,0.7-0.9
		c0,0,0,0,0-0.1l0,0l0,0l0,0l0,0c0,0,0,0,0-0.1c0.3-0.5,0.5-0.8,0.6-1c0,0,0-0.1,0-0.1l0,0l-0.7-0.5l0,0c0,0,0,0-0.1,0
		c0,0-0.1,0-0.1,0l0,0c0,0-1.3-0.9-1.3-0.9c-0.1,0-0.2,0-0.2,0c0,0,0,0,0,0l0,0c0,0,0,0,0,0c-0.1,0.1-0.3,0.3-0.5,0.6c0,0,0,0,0,0
		c0,0,0,0,0,0c0,0,0,0,0,0l0,0c0,0,0,0,0,0.1c0,0,0,0,0,0c0,0,0,0,0,0c0,0,0,0,0,0.1l0,0c0,0,0,0,0,0c0,0,0,0,0,0c0,0,0,0,0,0
		c-0.2,0.3-0.3,0.6-0.4,0.7c0,0,0,0,0,0l0,0c0,0,0,0,0,0c0,0.1,0,0.1,0,0.2c0,0,1.3,0.9,1.3,0.9l0,0c0,0,0,0,0,0.1c0,0,0,0.1,0,0.1
		l0,0l0.7,0.5L134.2,35.2C134.1,35.2,134.2,35.2,134.2,35.2z"/>
	<path class="st8" d="M132.7,32l-0.4,0.1c-0.2,0.1-0.3,0.2-0.3,0.5l0,0.4c0,0.1,0.1,0.1,0.1,0l0.6-0.9C132.9,32.1,132.8,32,132.7,32
		z"/>
	<path class="st0" d="M141.6,38.2C141.6,38.2,141.6,38.2,141.6,38.2c0-0.1-0.1-0.1-0.1-0.2c0-0.1-0.1-0.1-0.1-0.2
		c-0.1-0.1-0.1-0.2-0.2-0.2c0,0-0.1-0.1-0.1-0.1c0,0-0.1-0.1-0.1-0.1c0,0-0.1-0.1-0.1-0.2c0-0.1-0.1-0.1-0.1-0.2
		c0-0.1-0.1-0.1-0.1-0.2c0-0.1-0.1-0.1-0.1-0.2c0-0.1-0.1-0.1-0.1-0.2c0-0.1-0.1-0.1-0.1-0.2c-0.1-0.1-0.2-0.2-0.3-0.3
		c0-0.1-0.1-0.1-0.1-0.2c0-0.1-0.1-0.1-0.1-0.2c-0.1-0.1-0.2-0.2-0.3-0.3c0,0-0.1-0.1-0.1-0.1c0,0-0.1-0.1-0.1-0.1
		c-0.1-0.1-0.1-0.2-0.2-0.2c-0.1-0.1-0.1-0.1-0.2-0.2c0,0-0.1-0.1-0.1-0.1c0,0,0,0,0,0s0,0,0,0c0,0,0.1,0,0.1,0.1
		c0.1,0,0.1,0.1,0.2,0.1c0.1,0,0.2,0.1,0.3,0.2c0,0,0.1,0.1,0.1,0.1c0,0,0.1,0.1,0.2,0.1c0.1,0.1,0.2,0.2,0.3,0.3
		c0.1,0,0.1,0.1,0.2,0.1c0.1,0.1,0.1,0.1,0.2,0.2c0.1,0.1,0.2,0.2,0.3,0.3c0,0.1,0.1,0.1,0.1,0.2c0,0.1,0.1,0.1,0.1,0.2
		c0,0.1,0.1,0.1,0.1,0.2c0,0.1,0.1,0.1,0.1,0.2c0,0.1,0.1,0.1,0.1,0.2c0,0.1,0.1,0.1,0.1,0.2c0,0.1,0.1,0.1,0.1,0.2
		c0,0.1,0.1,0.1,0.1,0.2c0,0.1,0.1,0.2,0.1,0.3c0,0.1,0.1,0.2,0.1,0.2C141.6,38,141.6,38.1,141.6,38.2
		C141.6,38.2,141.6,38.2,141.6,38.2z"/>
</g>
<g>
	
		<radialGradient id="SVGID_00000166645206922164988960000008381999716950329267_" cx="2485.2634" cy="121.5669" r="4.8929" gradientTransform="matrix(-0.9229 -0.385 0.385 -0.9229 2250.7363 1103.6938)" gradientUnits="userSpaceOnUse">
		<stop  offset="5.241550e-03" style="stop-color:#FFFFFF"/>
		<stop  offset="0.434" style="stop-color:#00A900"/>
		<stop  offset="0.5405" style="stop-color:#009800"/>
		<stop  offset="0.7508" style="stop-color:#006C00"/>
		<stop  offset="0.8095" style="stop-color:#005E00"/>
		<stop  offset="0.8649" style="stop-color:#005700"/>
		<stop  offset="0.9469" style="stop-color:#004300"/>
		<stop  offset="1" style="stop-color:#003200"/>
	</radialGradient>
	<path style="fill:url(#SVGID_00000166645206922164988960000008381999716950329267_);" d="M6.8,31.2C6.8,31.2,6.8,31.2,6.8,31.2
		c-0.2,0-0.7-0.1-1.2-0.4c-0.5-0.2-1-0.4-1.1-0.5c0,0,0-0.1,0-0.1l0,0c-0.6,0.3-1.7,0.9-2.2,2.2c-1.6,3.7-0.3,6.2,0.1,6.3
		c0.4,0.2,3-0.7,4.5-4.4C7.4,33,7.1,31.8,6.8,31.2L6.8,31.2z"/>
	
		<radialGradient id="SVGID_00000142858180965627906560000005442102848066387618_" cx="2575.0747" cy="514.5049" r="15.7431" gradientTransform="matrix(-0.3009 -0.1382 0.1585 -0.3467 702.439 567.2498)" gradientUnits="userSpaceOnUse">
		<stop  offset="0.1947" style="stop-color:#47C800"/>
		<stop  offset="1" style="stop-color:#43BB00;stop-opacity:0"/>
	</radialGradient>
	<path style="opacity:0.5;fill:url(#SVGID_00000142858180965627906560000005442102848066387618_);" d="M4.4,29.9
		c-1.2,2.9-0.6,8,2.2,9.2c2.9,1.2,6.9-1.9,8.1-4.9c1.2-2.9-0.1-6.3-3-7.5C8.9,25.6,5.6,27,4.4,29.9z"/>
	
		<linearGradient id="SVGID_00000135669020166899352700000005891422950924884911_" gradientUnits="userSpaceOnUse" x1="2483.959" y1="127.248" x2="2486.5544" y2="127.248" gradientTransform="matrix(-0.9229 -0.385 0.385 -0.9229 2250.7363 1103.6938)">
		<stop  offset="0" style="stop-color:#000000"/>
		<stop  offset="0.6622" style="stop-color:#5D5C5C"/>
		<stop  offset="1" style="stop-color:#242424"/>
	</linearGradient>
	<path style="fill:url(#SVGID_00000135669020166899352700000005891422950924884911_);" d="M4.5,30.3c0.1,0.1,0.5,0.3,1,0.5
		c0,0,0.1,0,0.1,0l0,0l0,0l0,0l0,0c0,0,0.1,0,0.1,0c0.5,0.2,0.9,0.3,1.1,0.4c0,0,0.1,0,0.1,0l0,0l0.3-0.8l0,0c0,0,0,0,0-0.1
		c0,0,0-0.1,0-0.1l0,0c0,0,0.6-1.5,0.6-1.5c0-0.1,0-0.1-0.1-0.2c0,0,0,0,0,0l0,0c0,0,0,0,0,0c-0.1-0.1-0.4-0.3-0.7-0.4c0,0,0,0,0,0
		c0,0,0,0,0,0c0,0,0,0-0.1,0l0,0c0,0,0,0-0.1,0c0,0,0,0,0,0c0,0,0,0,0,0c0,0,0,0-0.1,0l0,0c0,0,0,0-0.1,0c0,0,0,0,0,0c0,0,0,0,0,0
		c-0.3-0.1-0.6-0.2-0.8-0.2c0,0,0,0,0,0l0,0c0,0,0,0,0,0c-0.1,0-0.1,0-0.2,0.1c0,0-0.6,1.5-0.6,1.5l0,0c0,0,0,0-0.1,0
		c0,0-0.1,0-0.1,0l0,0L4.5,30.3L4.5,30.3C4.4,30.2,4.4,30.2,4.5,30.3z"/>
	<path class="st8" d="M7.3,28.2l-0.2-0.3c-0.1-0.2-0.3-0.3-0.5-0.2l-0.4,0.1c-0.1,0-0.1,0.1,0,0.1L7.3,28.2
		C7.2,28.3,7.3,28.3,7.3,28.2z"/>
	<path class="st0" d="M3.1,38.2C3.1,38.2,3.1,38.1,3.1,38.2c0.1-0.1,0.1-0.1,0.1-0.1c0,0,0.1-0.1,0.2-0.2c0.1-0.1,0.1-0.1,0.2-0.2
		c0,0,0.1-0.1,0.1-0.1c0,0,0.1-0.1,0.1-0.1c0,0,0.1-0.1,0.1-0.1C4,37.1,4,37.1,4.1,37c0-0.1,0.1-0.1,0.1-0.2c0-0.1,0.1-0.1,0.1-0.2
		c0-0.1,0.1-0.1,0.1-0.2c0-0.1,0.1-0.1,0.1-0.2c0.1-0.1,0.2-0.2,0.3-0.3C4.9,36,5,35.9,5,35.9c0-0.1,0.1-0.1,0.1-0.2
		c0.1-0.1,0.2-0.2,0.2-0.3c0-0.1,0.1-0.1,0.1-0.2c0,0,0.1-0.1,0.1-0.1c0.1-0.1,0.1-0.2,0.2-0.2c0.1-0.1,0.1-0.1,0.1-0.2
		c0-0.1,0.1-0.1,0.1-0.1c0,0,0,0,0,0s0,0,0,0.1c0,0,0,0.1,0,0.1c0,0.1,0,0.1-0.1,0.2c0,0.1-0.1,0.2-0.1,0.3c0,0.1,0,0.1-0.1,0.2
		c0,0.1-0.1,0.1-0.1,0.2c-0.1,0.1-0.1,0.2-0.2,0.4c0,0.1-0.1,0.1-0.1,0.2c0,0.1-0.1,0.1-0.1,0.2c-0.1,0.1-0.2,0.2-0.3,0.4
		c0,0.1-0.1,0.1-0.1,0.2c0,0.1-0.1,0.1-0.1,0.2c-0.1,0.1-0.1,0.1-0.2,0.2c0,0.1-0.1,0.1-0.2,0.2c-0.1,0-0.1,0.1-0.2,0.1
		c-0.1,0-0.1,0.1-0.2,0.1c0,0-0.1,0.1-0.1,0.1c0,0-0.1,0.1-0.1,0.1c-0.1,0.1-0.2,0.1-0.3,0.2c-0.1,0-0.2,0.1-0.2,0.1
		C3.2,38.1,3.1,38.1,3.1,38.2C3.1,38.1,3.1,38.2,3.1,38.2z"/>
</g>
<g>
	
		<radialGradient id="SVGID_00000160900841853884009310000016876821802483924140_" cx="4364.1807" cy="-861.8067" r="4.8928" gradientTransform="matrix(-0.1126 0.9936 -0.9936 -0.1126 -316.3741 -4396.207)" gradientUnits="userSpaceOnUse">
		<stop  offset="5.241550e-03" style="stop-color:#FFFFFF"/>
		<stop  offset="0.434" style="stop-color:#FF2E00"/>
		<stop  offset="0.5954" style="stop-color:#FF1D00"/>
		<stop  offset="0.8095" style="stop-color:#FF0000"/>
		<stop  offset="0.8315" style="stop-color:#F80002"/>
		<stop  offset="0.8642" style="stop-color:#E40008"/>
		<stop  offset="0.9036" style="stop-color:#C30012"/>
		<stop  offset="0.9482" style="stop-color:#950020"/>
		<stop  offset="0.9965" style="stop-color:#5A0032"/>
		<stop  offset="1" style="stop-color:#560033"/>
	</radialGradient>
	<path style="fill:url(#SVGID_00000160900841853884009310000016876821802483924140_);" d="M44.5,35.4C44.6,35.4,44.6,35.4,44.5,35.4
		c0.1,0.2,0.1,0.7,0,1.3c-0.1,0.5-0.2,1-0.2,1.2c0,0,0,0.1-0.1,0.1l0,0c0.4,0.5,1.4,1.4,2.7,1.5c4,0.5,6-1.4,6.1-1.8
		c0-0.4-1.5-2.7-5.5-3.1C46.1,34.4,45,35,44.5,35.4L44.5,35.4z"/>
	
		<linearGradient id="SVGID_00000137127324464286150170000005207899062910960007_" gradientUnits="userSpaceOnUse" x1="4362.876" y1="-856.1257" x2="4365.4717" y2="-856.1257" gradientTransform="matrix(-0.1126 0.9936 -0.9936 -0.1126 -316.3741 -4396.207)">
		<stop  offset="0" style="stop-color:#000000"/>
		<stop  offset="0.6622" style="stop-color:#5D5C5C"/>
		<stop  offset="1" style="stop-color:#242424"/>
	</linearGradient>
	<path style="fill:url(#SVGID_00000137127324464286150170000005207899062910960007_);" d="M44.3,37.9c0-0.2,0.1-0.6,0.2-1.1
		c0,0,0-0.1,0-0.1l0,0l0,0l0,0l0,0c0,0,0-0.1,0-0.1c0.1-0.6,0.1-1,0.1-1.1c0,0,0-0.1-0.1-0.1l0,0l-0.9-0.1l0,0c0,0,0,0-0.1,0
		c0,0,0,0-0.1,0l0,0c0,0-1.6-0.2-1.6-0.2c-0.1,0-0.1,0.1-0.2,0.1c0,0,0,0,0,0l0,0c0,0,0,0,0,0c-0.1,0.2-0.1,0.4-0.2,0.8c0,0,0,0,0,0
		c0,0,0,0,0,0c0,0,0,0,0,0.1c0,0,0,0,0,0c0,0,0,0,0,0.1c0,0,0,0,0,0c0,0,0,0,0,0c0,0,0,0,0,0.1c0,0,0,0,0,0c0,0,0,0,0,0.1
		c0,0,0,0,0,0c0,0,0,0,0,0c0,0.4,0,0.6,0,0.8c0,0,0,0,0,0l0,0c0,0,0,0,0,0c0,0.1,0.1,0.1,0.1,0.2c0,0,1.6,0.2,1.6,0.2l0,0
		c0,0,0.1,0,0.1,0.1c0,0,0,0.1,0,0.1l0,0L44.3,37.9L44.3,37.9C44.3,38,44.3,37.9,44.3,37.9z"/>
	<path class="st8" d="M41.6,35.8L41.3,36c-0.2,0.1-0.2,0.4-0.1,0.6l0.2,0.3c0,0.1,0.1,0,0.1,0l0.1-1.1
		C41.7,35.8,41.6,35.7,41.6,35.8z"/>
	<path class="st0" d="M52.3,37.1C52.3,37.1,52.3,37,52.3,37.1c-0.1,0-0.1-0.1-0.2-0.1c-0.1,0-0.1-0.1-0.2-0.1
		c-0.1,0-0.2-0.1-0.3-0.1c0,0-0.1,0-0.2-0.1c-0.1,0-0.1-0.1-0.2-0.1c-0.1,0-0.1-0.1-0.2-0.1c-0.1,0-0.1-0.1-0.2-0.1
		c-0.1,0-0.1-0.1-0.2-0.1c-0.1,0-0.1-0.1-0.2-0.1c-0.1,0-0.1-0.1-0.2-0.1c-0.1,0-0.1-0.1-0.2-0.1C50,36,49.9,36,49.7,35.9
		c-0.1,0-0.1,0-0.2-0.1c-0.1,0-0.1,0-0.2-0.1c-0.1,0-0.3-0.1-0.4-0.1c-0.1,0-0.1,0-0.2-0.1c-0.1,0-0.1,0-0.2-0.1
		c-0.1,0-0.2-0.1-0.3-0.1c-0.1,0-0.2-0.1-0.2-0.1c-0.1,0-0.1,0-0.1-0.1c0,0-0.1,0-0.1,0s0,0,0.1,0c0,0,0.1,0,0.2,0
		c0.1,0,0.1,0,0.2,0c0.1,0,0.2,0,0.3,0c0.1,0,0.1,0,0.2,0c0.1,0,0.1,0,0.2,0c0.1,0,0.3,0.1,0.4,0.1c0.1,0,0.1,0,0.2,0.1
		c0.1,0,0.1,0,0.2,0.1c0.1,0,0.3,0.1,0.4,0.2c0.1,0,0.1,0.1,0.2,0.1c0.1,0,0.1,0.1,0.2,0.1c0.1,0,0.1,0.1,0.2,0.1
		c0.1,0,0.1,0.1,0.2,0.1c0.1,0,0.1,0.1,0.2,0.1c0.1,0,0.1,0.1,0.2,0.1c0.1,0,0.1,0.1,0.2,0.1c0,0,0.1,0.1,0.1,0.1
		c0.1,0.1,0.2,0.1,0.2,0.2c0.1,0.1,0.1,0.1,0.2,0.2C52.2,36.9,52.2,37,52.3,37.1C52.3,37,52.3,37.1,52.3,37.1z"/>
	
		<radialGradient id="SVGID_00000054980079621772677290000000796788043208311951_" cx="4882.9883" cy="-865.0665" r="7.049" gradientTransform="matrix(-0.1419 0.5555 -1.0126 -0.2218 -133.2185 -2868.3457)" gradientUnits="userSpaceOnUse">
		<stop  offset="0" style="stop-color:#FF501B"/>
		<stop  offset="1" style="stop-color:#F94E1A;stop-opacity:0"/>
	</radialGradient>
	<path style="opacity:0.5;fill:url(#SVGID_00000054980079621772677290000000796788043208311951_);" d="M48.1,40.1
		c3.8,0.7,9.5-0.1,9.9-2.5c0.5-2.4-4.5-5.3-8.3-6c-3.8-0.7-7.3,0.6-7.7,2.9C41.6,36.9,44.3,39.4,48.1,40.1z"/>
</g>
<g>
	
		<radialGradient id="SVGID_00000152252865831372213910000014801176381268494265_" cx="4114.4282" cy="-782.7882" r="4.8928" gradientTransform="matrix(-0.1381 -0.9904 0.9904 -0.1381 1524.173 4004.0344)" gradientUnits="userSpaceOnUse">
		<stop  offset="5.241550e-03" style="stop-color:#FFFFFF"/>
		<stop  offset="0.434" style="stop-color:#FF2E00"/>
		<stop  offset="0.5954" style="stop-color:#FF1D00"/>
		<stop  offset="0.8095" style="stop-color:#FF0000"/>
		<stop  offset="0.8315" style="stop-color:#F80002"/>
		<stop  offset="0.8642" style="stop-color:#E40008"/>
		<stop  offset="0.9036" style="stop-color:#C30012"/>
		<stop  offset="0.9482" style="stop-color:#950020"/>
		<stop  offset="0.9965" style="stop-color:#5A0032"/>
		<stop  offset="1" style="stop-color:#560033"/>
	</radialGradient>
	<path style="fill:url(#SVGID_00000152252865831372213910000014801176381268494265_);" d="M185,38C185,38,185,37.9,185,38
		c-0.1-0.2-0.2-0.7-0.3-1.3c-0.1-0.5-0.1-1-0.1-1.2c0,0,0-0.1,0.1-0.1l0,0c-0.6-0.4-1.7-1-3-0.8c-4,0.6-5.5,2.9-5.4,3.3
		c0.1,0.4,2.1,2.2,6.1,1.7C183.7,39.3,184.6,38.5,185,38L185,38z"/>
	
		<radialGradient id="SVGID_00000162315387192384037980000007524378217424467892_" cx="4586.0737" cy="-758.9482" r="9.5576" gradientTransform="matrix(-4.668302e-02 -0.513 0.7941 -9.069650e-02 994.8536 2317.8721)" gradientUnits="userSpaceOnUse">
		<stop  offset="0.2356" style="stop-color:#FF501B"/>
		<stop  offset="1" style="stop-color:#F94E1A;stop-opacity:0"/>
	</radialGradient>
	<path style="opacity:0.5;fill:url(#SVGID_00000162315387192384037980000007524378217424467892_);" d="M178.5,28.8
		c-4,0.6-9.3,3.7-8.9,6.6c0.4,2.9,6.3,4.5,10.3,3.9c4-0.6,6.9-3.4,6.5-6.3C186.1,30.2,182.6,28.3,178.5,28.8z"/>
	
		<linearGradient id="SVGID_00000143587888683559335370000017170612131325502875_" gradientUnits="userSpaceOnUse" x1="4113.1235" y1="-777.1072" x2="4115.7192" y2="-777.1072" gradientTransform="matrix(-0.1381 -0.9904 0.9904 -0.1381 1524.173 4004.0344)">
		<stop  offset="0" style="stop-color:#000000"/>
		<stop  offset="0.6622" style="stop-color:#5D5C5C"/>
		<stop  offset="1" style="stop-color:#242424"/>
	</linearGradient>
	<path style="fill:url(#SVGID_00000143587888683559335370000017170612131325502875_);" d="M184.6,35.5c0,0.2,0,0.6,0.1,1.1
		c0,0,0,0.1,0,0.1l0,0l0,0l0,0l0,0c0,0,0,0.1,0,0.1c0.1,0.6,0.2,1,0.2,1.1c0,0,0,0.1,0.1,0.1l0,0l0.9-0.1l0,0c0,0,0,0,0-0.1
		c0,0,0-0.1,0.1-0.1l0,0c0,0,1.6-0.2,1.6-0.2c0.1,0,0.1-0.1,0.1-0.2c0,0,0,0,0,0l0,0c0,0,0,0,0,0c0-0.2,0-0.5,0-0.8c0,0,0,0,0,0
		c0,0,0,0,0,0c0,0,0,0,0-0.1c0,0,0,0,0,0c0,0,0,0,0-0.1c0,0,0,0,0,0c0,0,0,0,0,0c0,0,0,0,0-0.1c0,0,0,0,0,0c0,0,0,0,0-0.1
		c0,0,0,0,0,0c0,0,0,0,0,0c-0.1-0.4-0.2-0.6-0.2-0.8c0,0,0,0,0,0l0,0c0,0,0,0,0,0c0-0.1-0.1-0.1-0.2-0.1c0,0-1.6,0.2-1.6,0.2l0,0
		c0,0-0.1,0-0.1,0c0,0,0,0-0.1,0l0,0L184.6,35.5L184.6,35.5C184.6,35.4,184.6,35.4,184.6,35.5z"/>
	<path class="st8" d="M187.8,36.8l0.2-0.3c0.1-0.2,0.1-0.4-0.1-0.5l-0.3-0.3c0,0-0.1,0-0.1,0.1l0.1,1
		C187.7,36.9,187.8,36.9,187.8,36.8z"/>
	<path class="st0" d="M177.1,38.3C177.1,38.3,177.1,38.3,177.1,38.3c0.1,0,0.1,0,0.2,0c0.1,0,0.1,0,0.2,0.1c0.1,0,0.2,0,0.3,0.1
		c0.1,0,0.1,0,0.2,0c0.1,0,0.1,0,0.2,0c0.1,0,0.1,0,0.2,0c0.1,0,0.1,0,0.2,0c0.1,0,0.1,0,0.2,0c0.1,0,0.1,0,0.2,0c0.1,0,0.1,0,0.2,0
		c0.1,0,0.1,0,0.2,0c0.1,0,0.3,0,0.4,0.1c0.1,0,0.1,0,0.2,0c0.1,0,0.1,0,0.2,0c0.1,0,0.3,0,0.4,0c0.1,0,0.1,0,0.2,0
		c0.1,0,0.1,0,0.2,0c0.1,0,0.2,0,0.3,0c0.1,0,0.2,0,0.2,0c0.1,0,0.1,0,0.2,0c0,0,0.1,0,0.1,0s0,0-0.1,0c0,0-0.1,0-0.1,0
		c-0.1,0-0.1,0-0.2,0.1c-0.1,0-0.2,0-0.3,0c-0.1,0-0.1,0-0.2,0c-0.1,0-0.1,0-0.2,0c-0.1,0-0.3,0-0.4,0c-0.1,0-0.1,0-0.2,0
		c-0.1,0-0.1,0-0.2,0c-0.1,0-0.3,0-0.5,0c-0.1,0-0.2,0-0.2,0c-0.1,0-0.1,0-0.2,0c-0.1,0-0.1,0-0.2,0c-0.1,0-0.1,0-0.2-0.1
		c-0.1,0-0.1,0-0.2-0.1c-0.1,0-0.1,0-0.2-0.1c-0.1,0-0.1,0-0.2-0.1c-0.1,0-0.1,0-0.2-0.1c-0.1,0-0.2-0.1-0.3-0.1
		c-0.1,0-0.2-0.1-0.2-0.1C177.2,38.3,177.2,38.3,177.1,38.3C177.1,38.3,177.1,38.3,177.1,38.3z"/>
</g>
</svg>
