<?xml version="1.0" encoding="utf-8"?>
<!-- Generator: Adobe Illustrator 28.0.0, SVG Export Plug-In . SVG Version: 6.00 Build 0)  -->
<svg version="1.1" id="Layer_1" xmlns="http://www.w3.org/2000/svg" xmlns:xlink="http://www.w3.org/1999/xlink" x="0px" y="0px"
	 viewBox="0 0 40 40" style="enable-background:new 0 0 40 40;" xml:space="preserve">
<style type="text/css">
	.st0{clip-path:url(#SVGID_00000095336753565567758800000015598972221022517889_);}
	.st1{fill:#1298FF;}
	.st2{fill:#FFFFFF;}
	.st3{fill:none;stroke:#7F7F7F;stroke-width:0.5;stroke-miterlimit:10;}
	.st4{fill:none;stroke:#FFFFFF;stroke-width:0.5;stroke-miterlimit:10;}
	.st5{fill:url(#SVGID_00000051345989468111579980000012180100073681411232_);}
	.st6{opacity:0.5;fill:url(#SVGID_00000071528214476670896820000001322153223842489747_);}
	.st7{fill:url(#SVGID_00000080184757595797387260000018309241213398251415_);}
	.st8{fill:#1C1918;}
	.st9{fill:url(#SVGID_00000150810918414843123240000011697410518141014415_);}
	.st10{opacity:0.5;fill:url(#SVGID_00000176724065050678956230000010778544427159855804_);}
	.st11{fill:url(#SVGID_00000043440462922927790050000004557711841522963613_);}
	.st12{fill:url(#SVGID_00000000927475337985062670000004162455104501214349_);}
	.st13{opacity:0.5;fill:url(#SVGID_00000165212540548455630060000014097528800458465699_);}
	.st14{fill:url(#SVGID_00000051381445390731699110000014762867959887487362_);}
</style>
<g>
	<g>
		<defs>
			<rect id="SVGID_1_" width="40" height="40"/>
		</defs>
		<clipPath id="SVGID_00000040547787094370953490000009254571345431876240_">
			<use xlink:href="#SVGID_1_"  style="overflow:visible;"/>
		</clipPath>
		<g id="Group_5743" style="clip-path:url(#SVGID_00000040547787094370953490000009254571345431876240_);">
			<path id="Path_6972" d="M40,20c0,11-9,20-20,20S0,31,0,20S9,0,20,0S40,9,40,20 M20,2.4C10.3,2.4,2.4,10.3,2.4,20
				S10.3,37.6,20,37.6c9.7,0,17.6-7.9,17.6-17.6C37.6,10.3,29.7,2.4,20,2.4"/>
			<path id="Path_6973" class="st1" d="M0,20c0,11,9,20,20,20V0C9,0,0,9,0,20"/>
			<path id="Path_6974" class="st2" d="M14,12.3H7v14.4h3.4v-4.5H14c0.8,0,1.5-0.2,2.1-0.7c0.5-0.6,0.8-1.3,0.7-2.1v-4.4
				c0-0.8-0.2-1.5-0.7-2.1C15.5,12.6,14.7,12.3,14,12.3 M13.4,18.8c0,0.2-0.1,0.5-0.4,0.5c0,0,0,0,0,0c0,0-0.1,0-0.1,0h-2.5v-4h2.5
				c0.2,0,0.5,0.1,0.5,0.4c0,0,0,0,0,0c0,0,0,0.1,0,0.1L13.4,18.8z"/>
			<path id="Path_6975" d="M29.8,18.4l-3.6-0.8c-0.3,0-0.5-0.3-0.5-0.6v-1.3c0-0.2,0.1-0.5,0.4-0.5c0,0,0,0,0,0c0,0,0.1,0,0.1,0h2
				c0.2,0,0.5,0.1,0.5,0.4c0,0,0,0,0,0c0,0,0,0.1,0,0.1v1h3.4V15c0-0.8-0.2-1.5-0.7-2.1c-0.6-0.5-1.3-0.8-2.1-0.7h-4.2
				c-0.8,0-1.5,0.2-2.1,0.7c-0.5,0.6-0.8,1.3-0.7,2.1v2.3c-0.1,1.5,1,2.8,2.4,3l3.6,0.8c0.3,0,0.5,0.3,0.5,0.6v1.6
				c0,0.2-0.1,0.5-0.4,0.5c0,0-0.1,0-0.1,0h-2.1c-0.2,0-0.5-0.1-0.5-0.4c0,0,0,0,0,0c0,0,0-0.1,0-0.1v-1.2h-3.4v1.9
				c-0.2,1.4,0.8,2.6,2.2,2.8c0.2,0,0.4,0,0.6,0h4.3c1.4,0.2,2.6-0.9,2.8-2.2c0-0.2,0-0.4,0-0.5v-2.6C32.4,20,31.3,18.6,29.8,18.4"
				/>
		</g>
	</g>
</g>
<path class="st3" d="M0.6,25.2c0,0,4.9,0.5,3.5,4s-1.4,11.5,7.4,9.1c8.8-2.5,11.2-6.4,16.5-3.1c5.3,3.3,12.9-3.1,9.3-7.4"/>
<path class="st4" d="M0.7,25c0,0,4.9,0.5,3.5,4S2.9,40.5,11.7,38c8.8-2.5,11.2-6.4,16.5-3.1s12.9-3.1,9.3-7.4"/>
<g>
	
		<radialGradient id="SVGID_00000004515956779686514790000004784078226776993944_" cx="2189.7578" cy="326.4476" r="9.0374" gradientTransform="matrix(-0.3959 0.2725 -0.2005 -0.3987 936.0479 -436.7762)" gradientUnits="userSpaceOnUse">
		<stop  offset="5.241550e-03" style="stop-color:#FFFFFF"/>
		<stop  offset="0.434" style="stop-color:#00A900"/>
		<stop  offset="0.5405" style="stop-color:#009800"/>
		<stop  offset="0.7508" style="stop-color:#006C00"/>
		<stop  offset="0.8095" style="stop-color:#005E00"/>
		<stop  offset="0.8649" style="stop-color:#005700"/>
		<stop  offset="0.9469" style="stop-color:#004300"/>
		<stop  offset="1" style="stop-color:#003200"/>
	</radialGradient>
	<path style="fill:url(#SVGID_00000004515956779686514790000004784078226776993944_);" d="M3,26.1C3,26.1,3,26.1,3,26.1
		c-0.1,0.2-0.5,0.4-0.9,0.7c-0.4,0.3-0.8,0.5-0.9,0.6c0,0-0.1,0-0.1,0l0,0c-0.2,0.6-0.3,1.7,0.2,2.7c1.5,3,3.7,3.2,4,3
		c0.3-0.2,1.2-2.6-0.3-5.5C4.4,26.5,3.5,26.2,3,26.1L3,26.1z"/>
	
		<radialGradient id="SVGID_00000034779628641024811410000007343836246477078163_" cx="2216.2549" cy="800.3517" r="20.5632" gradientTransform="matrix(-0.1904 0.1306 -0.1619 -0.3187 556.5363 -6.9897)" gradientUnits="userSpaceOnUse">
		<stop  offset="0" style="stop-color:#47C800"/>
		<stop  offset="1" style="stop-color:#43BB00;stop-opacity:0"/>
	</radialGradient>
	<path style="opacity:0.5;fill:url(#SVGID_00000034779628641024811410000007343836246477078163_);" d="M0.3,29.4
		c1.8,3.4,6.2,6.8,8.5,5.1c2.3-1.7,1.5-7.9-0.3-11.3c-1.8-3.4-5.2-4.8-7.4-3.1C-1.2,21.8-1.6,26,0.3,29.4z"/>
	
		<linearGradient id="SVGID_00000119095829932768092310000006455918412629144993_" gradientUnits="userSpaceOnUse" x1="2333.3374" y1="240.3767" x2="2335.6914" y2="240.3767" gradientTransform="matrix(-0.8592 0.5115 -0.5115 -0.8592 2130.3633 -961.8744)">
		<stop  offset="0" style="stop-color:#000000"/>
		<stop  offset="0.6622" style="stop-color:#5D5C5C"/>
		<stop  offset="1" style="stop-color:#242424"/>
	</linearGradient>
	<path style="fill:url(#SVGID_00000119095829932768092310000006455918412629144993_);" d="M1.2,27.4c0.1-0.1,0.4-0.3,0.9-0.5
		c0,0,0,0,0.1,0l0,0l0,0l0,0l0,0c0,0,0,0,0.1,0c0.4-0.3,0.7-0.5,0.8-0.6c0,0,0-0.1,0-0.1l0,0l-0.3-0.6l0,0c0,0,0,0-0.1,0
		c0,0,0,0-0.1,0l0,0c0,0-0.6-1.2-0.6-1.2c0,0-0.1-0.1-0.2,0c0,0,0,0,0,0l0,0c0,0,0,0,0,0c-0.1,0.1-0.4,0.2-0.6,0.3c0,0,0,0,0,0
		c0,0,0,0,0,0c0,0,0,0,0,0l0,0c0,0,0,0-0.1,0c0,0,0,0,0,0c0,0,0,0,0,0c0,0,0,0,0,0l0,0c0,0,0,0,0,0c0,0,0,0,0,0c0,0,0,0,0,0
		c-0.3,0.2-0.4,0.4-0.6,0.5c0,0,0,0,0,0l0,0c0,0,0,0,0,0c0,0-0.1,0.1-0.1,0.2c0,0,0.6,1.2,0.6,1.2l0,0c0,0,0,0.1,0,0.1
		c0,0,0,0.1,0,0.1l0,0L1.2,27.4L1.2,27.4C1.1,27.4,1.2,27.4,1.2,27.4z"/>
	<path class="st8" d="M1.4,24.3l-0.3,0c-0.2,0-0.3,0.1-0.4,0.3l-0.1,0.3c0,0.1,0,0.1,0.1,0.1l0.8-0.5C1.5,24.4,1.5,24.3,1.4,24.3z"
		/>
	<path class="st2" d="M5.4,32.3C5.4,32.3,5.4,32.3,5.4,32.3c0-0.1,0-0.1,0-0.2c0-0.1,0-0.1,0-0.2c0-0.1,0-0.2,0-0.3c0,0,0-0.1,0-0.1
		c0-0.1,0-0.1,0-0.2c0-0.1,0-0.1,0-0.2c0-0.1,0-0.1,0-0.2c0-0.1,0-0.1,0-0.2c0-0.1,0-0.1,0-0.2c0-0.1,0-0.1,0-0.2c0-0.1,0-0.1,0-0.2
		C5.1,30.1,5,30,5,29.9c0-0.1,0-0.1,0-0.2c0-0.1,0-0.1,0-0.2c0-0.1-0.1-0.2-0.1-0.3c0-0.1,0-0.1,0-0.2c0,0,0-0.1,0-0.1
		c0-0.1,0-0.2-0.1-0.3c0-0.1,0-0.1,0-0.2c0-0.1,0-0.1,0-0.1c0,0,0,0,0,0s0,0,0,0c0,0,0,0.1,0.1,0.1c0,0,0.1,0.1,0.1,0.2
		c0,0.1,0.1,0.1,0.1,0.2c0,0,0,0.1,0.1,0.1c0,0,0,0.1,0.1,0.1c0,0.1,0.1,0.2,0.1,0.3c0,0.1,0,0.1,0.1,0.2c0,0.1,0,0.1,0.1,0.2
		c0,0.1,0.1,0.2,0.1,0.4c0,0.1,0,0.1,0,0.2c0,0.1,0,0.1,0,0.2c0,0.1,0,0.1,0,0.2c0,0.1,0,0.1,0,0.2c0,0.1,0,0.1,0,0.2
		c0,0.1,0,0.1,0,0.2c0,0.1,0,0.1,0,0.2c0,0.1,0,0.1,0,0.2c0,0.1,0,0.2,0,0.3c0,0.1,0,0.2,0,0.2C5.4,32.1,5.4,32.2,5.4,32.3
		C5.4,32.3,5.4,32.3,5.4,32.3z"/>
</g>
<g>
	
		<radialGradient id="SVGID_00000129905542944579859100000008208845412957817476_" cx="3432.667" cy="-263.7092" r="9.0371" gradientTransform="matrix(-0.4795 -0.1163 0.136 -0.4101 1718.3687 322.0973)" gradientUnits="userSpaceOnUse">
		<stop  offset="5.241550e-03" style="stop-color:#FFFFFF"/>
		<stop  offset="0.434" style="stop-color:#FFEF3B"/>
		<stop  offset="0.502" style="stop-color:#FCDE3A"/>
		<stop  offset="0.637" style="stop-color:#F3B139"/>
		<stop  offset="0.8095" style="stop-color:#E67036"/>
		<stop  offset="0.8632" style="stop-color:#E56935"/>
		<stop  offset="0.9428" style="stop-color:#E25533"/>
		<stop  offset="1" style="stop-color:#E04231"/>
	</radialGradient>
	<path style="fill:url(#SVGID_00000129905542944579859100000008208845412957817476_);" d="M38.7,28C38.7,28,38.7,28,38.7,28
		c-0.2,0-0.6-0.1-1.2-0.2c-0.5-0.1-0.9-0.3-1.1-0.3c0,0-0.1,0,0-0.1l0,0c-0.5,0.3-1.4,0.9-1.8,1.9c-1,3.1,0.4,4.9,0.7,4.9
		s2.7-0.8,3.7-3.9C39.4,29.4,39,28.4,38.7,28L38.7,28z"/>
	
		<radialGradient id="SVGID_00000125560413705787082030000005856380565501779357_" cx="3766.9197" cy="-32.9844" r="20.5642" gradientTransform="matrix(-0.2087 -5.524170e-02 9.131632e-02 -0.2615 823.4137 231.0094)" gradientUnits="userSpaceOnUse">
		<stop  offset="0.193" style="stop-color:#FFC000"/>
		<stop  offset="0.8607" style="stop-color:#F7BA00;stop-opacity:0.1727"/>
		<stop  offset="1" style="stop-color:#F5B800;stop-opacity:0"/>
	</radialGradient>
	<path style="opacity:0.5;fill:url(#SVGID_00000125560413705787082030000005856380565501779357_);" d="M29.8,29.7
		c-0.9,2.9-0.1,7.3,2.5,7.9c2.6,0.6,5.9-3,6.8-5.8c0.9-2.9-0.4-5.7-3-6.2C33.5,24.9,30.7,26.8,29.8,29.7z"/>
	
		<linearGradient id="SVGID_00000174575346693000704080000012061100131498662559_" gradientUnits="userSpaceOnUse" x1="3627.2654" y1="-319.7673" x2="3629.6594" y2="-319.7673" gradientTransform="matrix(-0.962 -0.2729 0.2729 -0.962 3615.887 709.059)">
		<stop  offset="0" style="stop-color:#000000"/>
		<stop  offset="0.6622" style="stop-color:#5D5C5C"/>
		<stop  offset="1" style="stop-color:#242424"/>
	</linearGradient>
	<path style="fill:url(#SVGID_00000174575346693000704080000012061100131498662559_);" d="M36.5,27.5c0.1,0,0.5,0.2,1,0.3
		c0,0,0,0,0.1,0l0,0l0,0l0,0l0,0c0,0,0,0,0.1,0c0.5,0.1,0.9,0.2,1,0.2c0,0,0.1,0,0.1,0l0,0l0.2-0.7l0,0c0,0,0,0,0-0.1c0,0,0,0,0-0.1
		l0,0c0,0,0.4-1.2,0.4-1.2c0-0.1,0-0.1-0.1-0.1c0,0,0,0,0,0l0,0c0,0,0,0,0,0c-0.1-0.1-0.4-0.2-0.7-0.3c0,0,0,0,0,0c0,0,0,0,0,0
		c0,0,0,0,0,0l0,0c0,0,0,0-0.1,0c0,0,0,0,0,0c0,0,0,0,0,0c0,0,0,0-0.1,0c0,0,0,0,0,0c0,0,0,0,0,0c0,0,0,0,0,0c0,0,0,0,0,0
		c-0.3-0.1-0.6-0.1-0.8-0.1c0,0,0,0,0,0l0,0c0,0,0,0,0,0c-0.1,0-0.1,0-0.2,0.1c0,0-0.4,1.2-0.4,1.2l0,0c0,0,0,0-0.1,0
		c0,0-0.1,0-0.1,0l0,0L36.5,27.5L36.5,27.5C36.4,27.4,36.4,27.5,36.5,27.5z"/>
	<path class="st8" d="M38.8,25.6l-0.2-0.2c-0.1-0.1-0.3-0.2-0.5-0.1l-0.3,0.1c-0.1,0,0,0.1,0,0.1L38.8,25.6
		C38.8,25.7,38.8,25.7,38.8,25.6z"/>
	<path class="st2" d="M36,33.8C36,33.8,36.1,33.8,36,33.8c0.1-0.1,0.1-0.1,0.1-0.1c0,0,0.1-0.1,0.1-0.1c0.1-0.1,0.1-0.1,0.2-0.2
		c0,0,0.1-0.1,0.1-0.1c0,0,0.1-0.1,0.1-0.1c0,0,0.1-0.1,0.1-0.1c0,0,0.1-0.1,0.1-0.1c0,0,0.1-0.1,0.1-0.1c0,0,0.1-0.1,0.1-0.1
		c0,0,0.1-0.1,0.1-0.1c0,0,0.1-0.1,0.1-0.1c0.1-0.1,0.1-0.2,0.2-0.3c0,0,0.1-0.1,0.1-0.1c0,0,0.1-0.1,0.1-0.1
		c0.1-0.1,0.1-0.2,0.2-0.3c0,0,0.1-0.1,0.1-0.1c0,0,0.1-0.1,0.1-0.1c0-0.1,0.1-0.1,0.1-0.2c0-0.1,0.1-0.1,0.1-0.2
		c0,0,0.1-0.1,0.1-0.1c0,0,0,0,0,0s0,0,0,0c0,0,0,0.1,0,0.1c0,0.1,0,0.1,0,0.2c0,0.1,0,0.1-0.1,0.2c0,0,0,0.1,0,0.1
		c0,0,0,0.1-0.1,0.1c0,0.1-0.1,0.2-0.1,0.3c0,0.1-0.1,0.1-0.1,0.2c0,0.1-0.1,0.1-0.1,0.2c-0.1,0.1-0.1,0.2-0.2,0.3
		c0,0.1-0.1,0.1-0.1,0.2c0,0.1-0.1,0.1-0.1,0.1c0,0-0.1,0.1-0.1,0.1c0,0-0.1,0.1-0.1,0.1c0,0-0.1,0.1-0.1,0.1c0,0-0.1,0.1-0.1,0.1
		c0,0-0.1,0.1-0.1,0.1c0,0-0.1,0.1-0.1,0.1c-0.1,0.1-0.2,0.1-0.2,0.2c-0.1,0-0.1,0.1-0.2,0.1C36.2,33.7,36.1,33.8,36,33.8
		C36.1,33.8,36,33.8,36,33.8z"/>
</g>
<g>
	
		<radialGradient id="SVGID_00000063613555704853690580000007806951147843590278_" cx="4078.8076" cy="-1055.6486" r="9.0373" gradientTransform="matrix(-0.2139 0.4102 -0.4405 -0.1485 429.3745 -1792.2153)" gradientUnits="userSpaceOnUse">
		<stop  offset="5.241550e-03" style="stop-color:#FFFFFF"/>
		<stop  offset="0.434" style="stop-color:#FF2E00"/>
		<stop  offset="0.5954" style="stop-color:#FF1D00"/>
		<stop  offset="0.8095" style="stop-color:#FF0000"/>
		<stop  offset="0.8315" style="stop-color:#F80002"/>
		<stop  offset="0.8642" style="stop-color:#E40008"/>
		<stop  offset="0.9036" style="stop-color:#C30012"/>
		<stop  offset="0.9482" style="stop-color:#950020"/>
		<stop  offset="0.9965" style="stop-color:#5A0032"/>
		<stop  offset="1" style="stop-color:#560033"/>
	</radialGradient>
	<path style="fill:url(#SVGID_00000063613555704853690580000007806951147843590278_);" d="M19,35.6C19,35.6,19,35.7,19,35.6
		c0,0.2-0.2,0.6-0.4,1c-0.2,0.4-0.4,0.8-0.5,0.9c0,0-0.1,0-0.1,0l0,0c0.2,0.5,0.8,1.3,1.9,1.7c3.3,1.1,5.6,0,5.7-0.3
		c0.2-0.3-0.5-2.4-3.8-3.5C20.7,35.1,19.6,35.4,19,35.6L19,35.6z"/>
	
		<radialGradient id="SVGID_00000038406065451012471940000007378098862949074323_" cx="4553.8066" cy="-1131.5034" r="14.384" gradientTransform="matrix(-0.1846 0.3296 -0.3453 -0.1315 470.6854 -1614.1636)" gradientUnits="userSpaceOnUse">
		<stop  offset="0" style="stop-color:#FF501B"/>
		<stop  offset="1" style="stop-color:#F94E1A;stop-opacity:0"/>
	</radialGradient>
	<path style="opacity:0.5;fill:url(#SVGID_00000038406065451012471940000007378098862949074323_);" d="M17,39.7
		c3.1,0.3,8.6-0.2,9.4-1.8c1.5-3-1.1-6.7-3.9-7.6c-2.8-0.9-6.3,0.7-7.9,3.7C13.1,37,14,39.4,17,39.7z"/>
	
		<linearGradient id="SVGID_00000161629918733276647590000010701752476289002119_" gradientUnits="userSpaceOnUse" x1="4206.5327" y1="-907.8336" x2="4208.8237" y2="-907.8336" gradientTransform="matrix(-0.3918 0.92 -0.92 -0.3918 830.9146 -4190.6279)">
		<stop  offset="0" style="stop-color:#000000"/>
		<stop  offset="0.6622" style="stop-color:#5D5C5C"/>
		<stop  offset="1" style="stop-color:#242424"/>
	</linearGradient>
	<path style="fill:url(#SVGID_00000161629918733276647590000010701752476289002119_);" d="M18,37.6c0.1-0.1,0.3-0.4,0.5-0.9
		c0,0,0,0,0-0.1l0,0l0,0l0,0l0,0c0,0,0,0,0-0.1c0.2-0.4,0.4-0.8,0.4-0.9c0,0,0-0.1,0-0.1l0,0l-0.7-0.2l0,0c0,0,0,0-0.1,0
		c0,0,0,0-0.1,0l0,0c0,0-1.3-0.4-1.3-0.4c-0.1,0-0.1,0-0.2,0.1c0,0,0,0,0,0l0,0c0,0,0,0,0,0c-0.1,0.1-0.3,0.3-0.4,0.6c0,0,0,0,0,0
		c0,0,0,0,0,0c0,0,0,0,0,0c0,0,0,0,0,0c0,0,0,0,0,0.1c0,0,0,0,0,0c0,0,0,0,0,0c0,0,0,0,0,0.1c0,0,0,0,0,0c0,0,0,0,0,0c0,0,0,0,0,0
		c0,0,0,0,0,0c-0.1,0.3-0.2,0.5-0.2,0.6c0,0,0,0,0,0l0,0c0,0,0,0,0,0c0,0.1,0,0.1,0.1,0.2c0,0,1.3,0.5,1.3,0.5l0,0c0,0,0,0,0,0.1
		c0,0,0,0,0,0.1l0,0L18,37.6L18,37.6C18,37.6,18,37.6,18,37.6z"/>
	<path class="st8" d="M16.3,35.4L16,35.5c-0.2,0.1-0.3,0.3-0.2,0.4l0.1,0.3c0,0,0.1,0,0.1,0L16.3,35.4
		C16.4,35.4,16.4,35.4,16.3,35.4z"/>
	<path class="st2" d="M25.1,38.4C25.1,38.4,25.1,38.4,25.1,38.4c-0.1,0-0.1-0.1-0.1-0.1c0,0-0.1-0.1-0.1-0.1c-0.1,0-0.1-0.1-0.2-0.2
		c0,0-0.1-0.1-0.1-0.1c0,0-0.1-0.1-0.1-0.1c0,0-0.1-0.1-0.1-0.1c0,0-0.1-0.1-0.1-0.1c0,0-0.1-0.1-0.1-0.1c0,0-0.1-0.1-0.1-0.1
		c0,0-0.1-0.1-0.1-0.1c0,0-0.1-0.1-0.1-0.1c-0.1-0.1-0.2-0.1-0.3-0.2c-0.1,0-0.1-0.1-0.1-0.1c0,0-0.1-0.1-0.1-0.1
		c-0.1-0.1-0.2-0.1-0.3-0.2c0,0-0.1-0.1-0.1-0.1c0,0-0.1-0.1-0.1-0.1c-0.1,0-0.1-0.1-0.2-0.1c-0.1,0-0.1-0.1-0.2-0.1
		c0,0-0.1-0.1-0.1-0.1c0,0,0,0,0,0s0,0,0,0c0,0,0.1,0,0.1,0c0.1,0,0.1,0,0.2,0.1c0.1,0,0.2,0,0.3,0.1c0,0,0.1,0,0.1,0.1
		c0,0,0.1,0,0.2,0.1c0.1,0,0.2,0.1,0.3,0.1c0.1,0,0.1,0.1,0.2,0.1c0.1,0,0.1,0.1,0.2,0.1c0.1,0.1,0.2,0.1,0.3,0.2
		c0.1,0,0.1,0.1,0.2,0.1c0.1,0,0.1,0.1,0.1,0.1c0,0,0.1,0.1,0.1,0.1c0,0,0.1,0.1,0.1,0.1c0,0,0.1,0.1,0.1,0.1c0,0,0.1,0.1,0.1,0.1
		c0,0,0.1,0.1,0.1,0.1c0,0,0.1,0.1,0.1,0.1c0.1,0.1,0.1,0.1,0.1,0.2c0,0.1,0.1,0.1,0.1,0.2C25.1,38.3,25.1,38.3,25.1,38.4
		C25.1,38.4,25.1,38.4,25.1,38.4z"/>
</g>
</svg>
